<svg width="753" height="754" viewBox="0 0 753 754" fill="none" xmlns="http://www.w3.org/2000/svg">
<path fill-rule="evenodd" clip-rule="evenodd" d="M156.5 185.409C175.278 185.409 190.5 177.35 190.5 167.409C190.5 157.468 175.278 149.409 156.5 149.409C137.722 149.409 122.5 157.468 122.5 167.409C122.5 177.35 137.722 185.409 156.5 185.409Z" fill="#F2F2F2"/>
<path fill-rule="evenodd" clip-rule="evenodd" d="M196.1 179.809C196.1 157.718 178.37 139.809 156.5 139.809C134.63 139.809 116.9 157.718 116.9 179.809" fill="#DDE3E9"/>
<rect x="156.897" y="-8" width="1.6" height="147.671" fill="#333948"/>
<g opacity="0.7">
<path fill-rule="evenodd" clip-rule="evenodd" d="M250.5 140.351C264.536 140.351 275.914 133.847 275.914 125.824C275.914 117.802 264.536 111.298 250.5 111.298C236.464 111.298 225.086 117.802 225.086 125.824C225.086 133.847 236.464 140.351 250.5 140.351Z" fill="#F2F2F2"/>
<path fill-rule="evenodd" clip-rule="evenodd" d="M280.1 135.831C280.1 118.003 266.848 103.551 250.5 103.551C234.152 103.551 220.9 118.003 220.9 135.831" fill="#DDE3E9"/>
<rect x="248.496" y="-8" width="2.4" height="111.551" fill="#333948"/>
</g>
<g opacity="0.6">
<path d="M671.914 550.93C681.456 605.689 450.05 641.406 250.874 616.48C51.6975 591.554 -39.6752 494.214 55.3685 442.348C150.412 390.482 662.372 496.172 671.914 550.93Z" fill="#333948"/>
</g>
<rect x="200.18" y="244.144" width="114.48" height="217.44" rx="5.76" fill="#333948"/>
<path fill-rule="evenodd" clip-rule="evenodd" d="M257.06 447.904C263.025 447.904 267.86 443.068 267.86 437.104C267.86 431.139 263.025 426.304 257.06 426.304C251.095 426.304 246.26 431.139 246.26 437.104C246.26 443.068 251.095 447.904 257.06 447.904Z" fill="white"/>
<path fill-rule="evenodd" clip-rule="evenodd" d="M247.7 258.544C248.495 258.544 249.14 257.899 249.14 257.104C249.14 256.308 248.495 255.664 247.7 255.664C246.905 255.664 246.26 256.308 246.26 257.104C246.26 257.899 246.905 258.544 247.7 258.544Z" fill="white"/>
<rect x="252.74" y="255.664" width="15.12" height="2.88" rx="1.44" fill="white"/>
<rect x="210.26" y="264.304" width="94.32" height="38.88" rx="2.88" fill="white"/>
<rect x="216.74" y="275.968" width="52.56" height="5.832" rx="2.16" fill="#DDE3E9"/>
<rect x="216.74" y="285.688" width="35.28" height="5.832" rx="2.16" fill="#DDE3E9"/>
<path fill-rule="evenodd" clip-rule="evenodd" d="M294.5 288.784C297.284 288.784 299.54 286.527 299.54 283.744C299.54 280.96 297.284 278.704 294.5 278.704C291.716 278.704 289.46 280.96 289.46 283.744C289.46 286.527 291.716 288.784 294.5 288.784Z" fill="#DDE3E9"/>
<path fill-rule="evenodd" clip-rule="evenodd" d="M294.5 285.904C295.693 285.904 296.66 284.937 296.66 283.744C296.66 282.551 295.693 281.584 294.5 281.584C293.307 281.584 292.34 282.551 292.34 283.744C292.34 284.937 293.307 285.904 294.5 285.904Z" fill="#F2F2F2"/>
<rect x="210.26" y="308.944" width="94.32" height="30.24" rx="2.88" fill="white"/>
<rect x="238.34" y="318.016" width="52.56" height="4.536" rx="2.16" fill="#DDE3E9"/>
<rect x="238.34" y="325.576" width="35.28" height="4.536" rx="2.16" fill="#DDE3E9"/>
<path fill-rule="evenodd" clip-rule="evenodd" d="M225.38 332.704C230.152 332.704 234.02 328.836 234.02 324.064C234.02 319.292 230.152 315.424 225.38 315.424C220.608 315.424 216.74 319.292 216.74 324.064C216.74 328.836 220.608 332.704 225.38 332.704Z" fill="#C5CFD6"/>
<rect x="210.26" y="344.944" width="94.32" height="30.24" rx="2.88" fill="white"/>
<rect x="216.74" y="354.016" width="52.56" height="4.536" rx="2.16" fill="#DDE3E9"/>
<rect x="216.74" y="361.576" width="35.28" height="4.536" rx="2.16" fill="#AFB9C5"/>
<path fill-rule="evenodd" clip-rule="evenodd" d="M294.5 365.104C297.284 365.104 299.54 362.847 299.54 360.064C299.54 357.28 297.284 355.024 294.5 355.024C291.716 355.024 289.46 357.28 289.46 360.064C289.46 362.847 291.716 365.104 294.5 365.104Z" fill="#DDE3E9"/>
<path fill-rule="evenodd" clip-rule="evenodd" d="M294.5 362.224C295.693 362.224 296.66 361.257 296.66 360.064C296.66 358.871 295.693 357.904 294.5 357.904C293.307 357.904 292.34 358.871 292.34 360.064C292.34 361.257 293.307 362.224 294.5 362.224Z" fill="#F2F2F2"/>
<rect x="210.26" y="380.944" width="94.32" height="30.24" rx="2.88" fill="white"/>
<rect x="238.34" y="390.016" width="52.56" height="4.536" rx="2.16" fill="#DDE3E9"/>
<rect x="238.34" y="397.576" width="35.28" height="4.536" rx="2.16" fill="#DDE3E9"/>
<path fill-rule="evenodd" clip-rule="evenodd" d="M225.38 404.704C230.152 404.704 234.02 400.836 234.02 396.064C234.02 391.292 230.152 387.424 225.38 387.424C220.608 387.424 216.74 391.292 216.74 396.064C216.74 400.836 220.608 404.704 225.38 404.704Z" fill="#C5CFD6"/>
<rect x="311.339" y="254.925" width="241.2" height="249.12" rx="5.76" fill="#F2F2F2"/>
<rect x="490.619" y="285.885" width="50.4" height="58.32" rx="5.76" fill="white"/>
<path fill-rule="evenodd" clip-rule="evenodd" d="M515.819 319.725C522.181 319.725 527.339 314.567 527.339 308.205C527.339 301.843 522.181 296.685 515.819 296.685C509.456 296.685 504.299 301.843 504.299 308.205C504.299 314.567 509.456 319.725 515.819 319.725Z" fill="#DDE3E9"/>
<rect x="497.819" y="322.605" width="36" height="4.32" rx="2.16" fill="#DDE3E9"/>
<rect x="503.579" y="329.805" width="24.48" height="4.32" rx="2.16" fill="#DDE3E9"/>
<path d="M311.339 260.685C311.339 257.504 313.918 254.925 317.099 254.925H546.779C549.96 254.925 552.539 257.504 552.539 260.685V274.365H311.339V260.685Z" fill="#333948"/>
<path fill-rule="evenodd" clip-rule="evenodd" d="M320.699 267.885C322.289 267.885 323.579 266.596 323.579 265.005C323.579 263.414 322.289 262.125 320.699 262.125C319.108 262.125 317.819 263.414 317.819 265.005C317.819 266.596 319.108 267.885 320.699 267.885Z" fill="#F2F2F2"/>
<path fill-rule="evenodd" clip-rule="evenodd" d="M329.339 267.885C330.929 267.885 332.219 266.596 332.219 265.005C332.219 263.414 330.929 262.125 329.339 262.125C327.748 262.125 326.459 263.414 326.459 265.005C326.459 266.596 327.748 267.885 329.339 267.885Z" fill="#F2F2F2"/>
<path fill-rule="evenodd" clip-rule="evenodd" d="M337.979 267.885C339.569 267.885 340.859 266.596 340.859 265.005C340.859 263.414 339.569 262.125 337.979 262.125C336.388 262.125 335.099 263.414 335.099 265.005C335.099 266.596 336.388 267.885 337.979 267.885Z" fill="#F2F2F2"/>
<rect x="490.619" y="349.965" width="50.4" height="139.68" rx="5.76" fill="white"/>
<rect x="503.579" y="362.925" width="24.48" height="18.72" rx="2.88" fill="#DDE3E9"/>
<rect x="503.579" y="387.405" width="24.48" height="18" rx="2.88" fill="#AFB9C5"/>
<rect x="503.579" y="411.165" width="24.48" height="18" rx="2.88" fill="#DDE3E9"/>
<rect x="503.579" y="458.685" width="24.48" height="18" rx="2.88" fill="#DDE3E9"/>
<rect x="503.579" y="434.925" width="24.48" height="18" rx="2.88" fill="#C5CFD6"/>
<rect x="322.859" y="286.605" width="162" height="33.84" rx="2.88" fill="white"/>
<rect x="329.339" y="296.757" width="120.24" height="5.076" rx="2.16" fill="#DDE3E9"/>
<rect x="329.339" y="305.217" width="80.709" height="5.076" rx="2.16" fill="#DDE3E9"/>
<path fill-rule="evenodd" clip-rule="evenodd" d="M467.546 308.565C470.329 308.565 472.586 306.308 472.586 303.525C472.586 300.741 470.329 298.485 467.546 298.485C464.762 298.485 462.506 300.741 462.506 303.525C462.506 306.308 464.762 308.565 467.546 308.565Z" fill="#DDE3E9"/>
<path fill-rule="evenodd" clip-rule="evenodd" d="M467.546 305.685C468.739 305.685 469.706 304.718 469.706 303.525C469.706 302.332 468.739 301.365 467.546 301.365C466.353 301.365 465.386 302.332 465.386 303.525C465.386 304.718 466.353 305.685 467.546 305.685Z" fill="#F2F2F2"/>
<rect x="322.859" y="326.205" width="162" height="28.08" rx="2.88" fill="white"/>
<rect x="329.339" y="334.629" width="120.24" height="4.212" rx="2.106" fill="#DDE3E9"/>
<rect x="329.339" y="341.649" width="80.709" height="4.212" rx="2.106" fill="#DDE3E9"/>
<path fill-rule="evenodd" clip-rule="evenodd" d="M467.546 345.285C470.329 345.285 472.586 343.028 472.586 340.245C472.586 337.461 470.329 335.205 467.546 335.205C464.762 335.205 462.506 337.461 462.506 340.245C462.506 343.028 464.762 345.285 467.546 345.285Z" fill="#DDE3E9"/>
<path fill-rule="evenodd" clip-rule="evenodd" d="M467.546 342.405C468.739 342.405 469.706 341.438 469.706 340.245C469.706 339.052 468.739 338.085 467.546 338.085C466.353 338.085 465.386 339.052 465.386 340.245C465.386 341.438 466.353 342.405 467.546 342.405Z" fill="#F2F2F2"/>
<rect x="322.859" y="360.045" width="162" height="28.08" rx="2.88" fill="white"/>
<rect x="329.339" y="368.469" width="120.24" height="4.212" rx="2.106" fill="#DDE3E9"/>
<rect x="329.339" y="375.489" width="80.709" height="4.212" rx="2.106" fill="#DDE3E9"/>
<path fill-rule="evenodd" clip-rule="evenodd" d="M467.546 379.125C470.329 379.125 472.586 376.868 472.586 374.085C472.586 371.301 470.329 369.045 467.546 369.045C464.762 369.045 462.506 371.301 462.506 374.085C462.506 376.868 464.762 379.125 467.546 379.125Z" fill="#DDE3E9"/>
<path fill-rule="evenodd" clip-rule="evenodd" d="M467.546 376.245C468.739 376.245 469.706 375.278 469.706 374.085C469.706 372.892 468.739 371.925 467.546 371.925C466.353 371.925 465.386 372.892 465.386 374.085C465.386 375.278 466.353 376.245 467.546 376.245Z" fill="#AFB9C5"/>
<rect x="322.859" y="461.565" width="162" height="28.08" rx="2.88" fill="white"/>
<rect x="329.339" y="469.989" width="120.24" height="4.212" rx="2.106" fill="#DDE3E9"/>
<rect x="329.339" y="477.009" width="80.709" height="4.212" rx="2.106" fill="#DDE3E9"/>
<path fill-rule="evenodd" clip-rule="evenodd" d="M467.546 480.645C470.329 480.645 472.586 478.388 472.586 475.605C472.586 472.821 470.329 470.565 467.546 470.565C464.762 470.565 462.506 472.821 462.506 475.605C462.506 478.388 464.762 480.645 467.546 480.645Z" fill="#DDE3E9"/>
<path fill-rule="evenodd" clip-rule="evenodd" d="M467.546 477.765C468.739 477.765 469.706 476.798 469.706 475.605C469.706 474.412 468.739 473.445 467.546 473.445C466.353 473.445 465.386 474.412 465.386 475.605C465.386 476.798 466.353 477.765 467.546 477.765Z" fill="#F2F2F2"/>
<rect x="322.859" y="427.725" width="162" height="28.08" rx="2.88" fill="white"/>
<rect x="329.339" y="436.149" width="120.24" height="4.212" rx="2.106" fill="#DDE3E9"/>
<rect x="329.339" y="443.169" width="80.709" height="4.212" rx="2.106" fill="#DDE3E9"/>
<path fill-rule="evenodd" clip-rule="evenodd" d="M467.546 446.805C470.329 446.805 472.586 444.548 472.586 441.765C472.586 438.981 470.329 436.725 467.546 436.725C464.762 436.725 462.506 438.981 462.506 441.765C462.506 444.548 464.762 446.805 467.546 446.805Z" fill="#DDE3E9"/>
<path fill-rule="evenodd" clip-rule="evenodd" d="M467.546 443.925C468.739 443.925 469.706 442.958 469.706 441.765C469.706 440.572 468.739 439.605 467.546 439.605C466.353 439.605 465.386 440.572 465.386 441.765C465.386 442.958 466.353 443.925 467.546 443.925Z" fill="#F2F2F2"/>
<rect x="322.859" y="393.885" width="162" height="28.08" rx="2.88" fill="white"/>
<rect x="329.339" y="402.309" width="120.24" height="4.212" rx="2.106" fill="#DDE3E9"/>
<rect x="329.339" y="409.329" width="80.709" height="4.212" rx="2.106" fill="#DDE3E9"/>
<path fill-rule="evenodd" clip-rule="evenodd" d="M467.546 412.965C470.329 412.965 472.586 410.708 472.586 407.925C472.586 405.141 470.329 402.885 467.546 402.885C464.762 402.885 462.506 405.141 462.506 407.925C462.506 410.708 464.762 412.965 467.546 412.965Z" fill="#DDE3E9"/>
<path fill-rule="evenodd" clip-rule="evenodd" d="M467.546 410.085C468.739 410.085 469.706 409.118 469.706 407.925C469.706 406.732 468.739 405.765 467.546 405.765C466.353 405.765 465.386 406.732 465.386 407.925C465.386 409.118 466.353 410.085 467.546 410.085Z" fill="#F2F2F2"/>
<path fill-rule="evenodd" clip-rule="evenodd" d="M7.15526 487.93C20.5951 510.477 36.2483 532.309 45.6486 556.961C45.2698 554.055 44.8681 551.153 44.4186 548.254C42.0334 532.889 39.0689 517.636 35.9539 502.401C34.3675 494.644 32.6897 486.916 30.9688 479.188C30.0433 475.037 29.1292 470.884 28.1846 466.737C27.9558 465.732 27.7592 463.978 27.4727 462.2C36.6083 492.178 45.4181 522.179 51.8622 552.879C52.7076 556.907 53.4274 560.929 54.0171 564.944C54.2189 564.028 54.4173 563.112 54.6345 562.199C57.2418 551.25 61.153 540.387 65.8099 530.15C68.0362 525.254 70.5934 520.465 73.6043 516.003C75.4818 513.221 79.9096 509.915 81.6223 507.066C72.2553 524.247 68.873 545.743 63.4645 564.421C62.1444 568.979 60.8161 573.529 59.5145 578.088C67.6708 561.731 80.3255 548.291 97.92 542.467C76.6226 556.539 63.8481 581.183 55.2399 606.387C55.2116 606.686 55.1778 606.985 55.1487 607.284C57.6818 602.477 60.8726 598.128 65.1971 595.083C74.4527 588.563 84.7203 590.463 93.6986 596.055C86.6522 591.576 73.9171 595.655 67.9882 600.207C63.7437 603.466 60.1163 607.838 56.9663 612.104C56.2115 613.126 55.1818 614.319 54.0939 615.592C52.5687 625.493 50.0831 635.325 46.5642 645.08C47.1449 642.28 46.725 637.802 46.8861 635.715C46.9036 635.489 46.9178 635.263 46.9352 635.038C46.4003 637.174 45.8835 639.285 45.3859 641.363C46.375 637.398 46.9126 633.26 47.3323 629.079C47.4403 627.282 47.5457 625.485 47.6571 623.688C47.6218 620.278 47.4814 616.855 47.2438 613.426C46.4015 610.094 45.4584 606.95 44.6807 604.336C41.8741 594.904 37.7598 585.867 32.6958 577.437C28.0755 569.744 22.5449 562.775 16.1602 556.473C12.7183 553.077 9.1162 549.842 5.5648 546.562C4.28059 545.376 1.9852 542.461 0 540.942C14.458 548.912 29.3392 557.536 39.8863 570.378C38.6497 565.63 37.3067 560.949 35.886 556.361C28.6784 533.087 19.5778 508.966 7.15526 487.93Z" fill="url(#paint0_linear)"/>
<path fill-rule="evenodd" clip-rule="evenodd" d="M21.6 615.56C21.6 641.407 23.6468 662.36 51.12 662.36C78.5932 662.36 80.64 641.407 80.64 615.56" fill="#333948"/>
<path fill-rule="evenodd" clip-rule="evenodd" d="M469.845 322.962C465.159 325.756 460.554 327.107 458.392 326.555C452.972 325.173 452.473 305.558 456.667 297.825C460.861 290.092 482.422 286.721 483.509 302.043C483.886 307.36 481.629 312.106 478.294 315.978L484.273 343.549H466.903L469.845 322.962Z" fill="#FDB797"/>
<path fill-rule="evenodd" clip-rule="evenodd" d="M449.069 361.862L419.446 350.658C414.109 345.867 409.009 342.28 404.147 339.897C402.711 339.521 400.291 339.512 403.063 343.14C405.834 346.767 408.587 350.707 407.627 352.08C406.667 353.453 403.611 352.153 402.546 354.36C401.836 355.83 406.949 357.277 417.886 358.7L440.444 374.198L449.069 361.862Z" fill="#FDB797"/>
<path fill-rule="evenodd" clip-rule="evenodd" d="M392.363 374.737C404.324 369.78 412.122 358.103 412.122 345.15C412.122 327.464 397.792 313.126 380.113 313.126C367.167 313.126 355.495 320.928 350.541 332.895C345.587 344.862 348.325 358.636 357.48 367.795C366.634 376.954 380.402 379.694 392.363 374.737ZM386.484 332.059C390.969 333.595 394.255 335.895 393.612 340.178L393.573 340.195C393.106 343.332 391.352 344.845 389.03 345.379C392.224 347.028 393.846 349.565 392.299 353.939C390.383 359.381 385.819 359.84 379.756 358.703L378.285 364.56L374.729 363.685L376.183 357.907C375.237 357.673 374.293 357.43 373.35 357.176L371.892 362.981L368.341 362.106L369.813 356.24C369.501 356.161 369.19 356.08 368.876 355.999L368.876 355.998L368.875 355.998C368.355 355.863 367.828 355.726 367.279 355.593L362.653 354.447L364.416 350.405C364.416 350.405 367.037 351.096 367.002 351.043C367.33 351.148 367.687 351.118 367.993 350.96C368.299 350.802 368.529 350.53 368.632 350.204L370.958 340.948L371.333 341.04C371.212 340.992 371.088 340.953 370.962 340.921L372.623 334.312C372.667 333.573 372.407 332.619 370.967 332.26C371.029 332.221 368.385 331.622 368.385 331.622L369.332 327.851L374.236 329.067C374.972 329.247 375.729 329.422 376.505 329.596L377.963 323.801L381.519 324.675L380.091 330.362C380.488 330.456 380.885 330.547 381.281 330.637L381.281 330.637L381.281 330.637L381.281 330.637C381.84 330.765 382.395 330.891 382.942 331.027L384.36 325.38L387.933 326.255L386.484 332.059ZM385.83 351.356C384.858 355.275 378.74 353.66 375.937 352.92L375.936 352.919C375.683 352.852 375.456 352.793 375.263 352.745L377.147 345.151C377.384 345.21 377.674 345.276 378.003 345.35C380.899 346.006 386.818 347.345 385.821 351.356H385.83ZM378.734 342.433C381.013 343.055 385.954 344.403 386.818 340.861H386.793C387.691 337.231 382.863 336.138 380.512 335.606C380.25 335.547 380.018 335.494 379.829 335.446L378.173 342.283C378.333 342.324 378.522 342.375 378.734 342.433Z" fill="#FBB347"/>
<path fill-rule="evenodd" clip-rule="evenodd" d="M411.777 380.636L398.762 375.695C398.762 375.695 394.86 366.371 391.314 366.808C389.385 366.22 393.685 373.931 390.152 373.707C386.619 373.482 377.363 368.425 376.097 369.894C374.223 372.068 376.936 377.551 379.582 380.097C384.528 384.854 388.258 386.195 397.178 387.382C404.174 388.314 412.793 392.864 412.793 392.864L411.777 380.636Z" fill="#FDB797"/>
<path fill-rule="evenodd" clip-rule="evenodd" d="M468.977 303.735C467.474 301.522 466.032 299.834 464.156 298.854C456.519 298.973 455.625 297.619 455.625 293.054C456.859 292.181 461.211 290.711 466.084 290.298C468.57 289.594 471.516 289.726 474.353 290.9C477.855 291.883 480.821 294 482.131 297.964C486.87 306.055 483.273 314.477 478.425 317.354C477.135 315.842 476.009 314.376 475.004 312.973C475.811 312.193 476.312 311.104 476.312 309.9C476.312 307.528 474.368 305.604 471.97 305.604C471.793 305.604 471.62 305.615 471.449 305.635C471.341 308.601 470.897 318.636 469.73 322.122C468.355 326.232 460.329 327.241 457.53 327.241C455.112 327.241 455.195 324.976 455.254 323.353C455.262 323.119 455.27 322.899 455.27 322.701C455.27 322.286 455.816 322.287 456.432 322.288C457.231 322.29 458.151 322.292 458.151 321.384C458.151 320.394 456.768 319.635 455.531 318.956C454.759 318.532 454.044 318.14 453.757 317.741C452.849 316.485 452.544 314.791 453.913 314.791C454.661 314.791 455.687 315.217 456.922 315.731C458.787 316.506 461.126 317.478 463.7 317.478C467.953 317.478 468.964 303.905 468.977 303.735Z" fill="#333948"/>
<path fill-rule="evenodd" clip-rule="evenodd" d="M475.347 334.442L465.396 332.688C462.389 365.852 464.612 361.407 430.128 351.644L424.126 365.113C444.692 379.125 474.574 393.881 480.635 372.086C482.669 364.771 476.749 342.649 475.347 334.442Z" fill="#F2F2F2"/>
<path fill-rule="evenodd" clip-rule="evenodd" d="M510.185 408.376L486.87 502.739L469.882 572.284L455.739 572.778L470.678 409.755L510.185 408.376Z" fill="#181B24"/>
<path fill-rule="evenodd" clip-rule="evenodd" d="M517.293 408.127C519.59 456.264 522.603 482.457 523.402 486.81C524.2 491.163 534.932 518.656 555.597 569.29L540.945 569.802C515.198 521.434 500.813 494.068 497.789 487.704C494.766 481.341 485.213 455.376 470.598 409.758L517.293 408.127Z" fill="#181B24"/>
<path fill-rule="evenodd" clip-rule="evenodd" d="M557.369 582.464L556.097 567.067L540.702 567.605C530.021 575.698 512.547 581.088 512.547 581.088L512.649 584.025L540.507 583.053L549.986 581.251L550.038 582.72L557.369 582.464Z" fill="#181B24"/>
<path fill-rule="evenodd" clip-rule="evenodd" d="M472.328 585.434L471.057 570.037L455.662 570.574C444.981 578.668 427.507 584.058 427.507 584.058L427.609 586.995L455.467 586.022L464.946 584.221L464.997 585.69L472.328 585.434Z" fill="#181B24"/>
<path fill-rule="evenodd" clip-rule="evenodd" d="M513.549 405.248C513.549 405.248 480.367 413.547 460.525 412.703C458.886 412.634 458.259 410.001 458.746 408.085C466.32 378.259 470.775 352.537 468.023 332.947C471.422 334.097 479.204 331.863 479.204 331.863C496.264 350.051 506.056 372.295 513.549 405.248Z" fill="#181B24"/>
<path fill-rule="evenodd" clip-rule="evenodd" d="M480.419 331.278C480.418 331.032 480.414 330.902 480.414 330.902L480.599 331.253L481.571 331.116C503.595 327.244 531.283 418.572 541.056 470.064L455.63 489.73C459.867 470.676 464.585 432.837 468.251 398.953C454.103 406.046 433.167 408.343 402.379 397.606L410.519 372.672C446.098 383.461 463.581 373.378 472.165 360.421C473.598 345.295 474.49 334.474 474.559 332.102L480.419 331.278Z" fill="#F2F2F2"/>
<path fill-rule="evenodd" clip-rule="evenodd" d="M189.93 366.487C194.594 369.296 199.176 370.654 201.327 370.1C206.721 368.71 207.217 348.989 203.044 341.214C198.87 333.439 177.415 330.05 176.333 345.455C175.958 350.801 178.204 355.572 181.523 359.466L175.572 387.186H192.857L189.93 366.487Z" fill="#FDB797"/>
<path fill-rule="evenodd" clip-rule="evenodd" d="M193.191 332.253C190.913 331.88 184.779 331.623 183.648 331.623C182.925 331.623 182.142 331.788 181.714 331.125C181.363 330.582 181.492 329.663 181.387 329.032C181.265 328.3 181.093 327.577 180.918 326.856C180.421 324.804 179.67 322.852 178.619 321.019C176.647 317.581 173.758 314.888 170.111 313.32C166.083 311.59 161.525 311.194 157.193 311.545C152.556 311.92 148.36 313.45 143.982 314.889C139.811 316.261 135.442 316.801 131.079 316.131C126.683 315.456 123.362 313.075 119.654 310.815C115.858 308.501 111.52 306.988 107.033 307.336C102.845 307.661 98.9842 309.389 95.5206 311.698C92.2801 313.859 89.6062 316.458 88.0966 320.116C86.4726 324.051 86.4741 328.371 89.1446 331.849C93.0155 336.89 100.202 338.193 106.18 338.064C109.638 337.989 113.035 337.358 116.3 336.21C120.654 334.68 124.416 332.085 128.49 329.981C130.401 328.993 132.377 328.182 134.448 327.597C136.458 327.03 138.438 326.77 140.258 327.983C142.183 329.267 143.908 330.528 146.11 331.332C148.222 332.103 150.46 332.534 152.711 332.516C157.09 332.483 161.408 331.119 165.661 330.205C169.13 329.461 172.841 328.718 176.377 329.434C177.852 329.733 180.008 330.35 180.541 331.882C171.571 333.507 168.048 344.594 170.577 352.733C171.941 357.126 180.145 362.261 183.335 359.952C185.356 358.489 184.129 356.568 183.335 355.3C181.815 352.872 181.294 349.753 184.108 348.062C186.535 346.604 189.087 350.067 189.135 350.063C189.802 350.01 195.566 346.753 199.537 341.999C203.454 342.231 204.049 339.649 203.113 337.538C202.178 335.426 196.339 332.769 193.191 332.253Z" fill="#282D3A"/>
<path fill-rule="evenodd" clip-rule="evenodd" d="M125.714 477.162C119.352 477.162 114.194 482.32 114.194 488.682V554.899C114.194 561.261 119.352 566.419 125.714 566.419H208.545C214.908 566.419 220.065 561.261 220.065 554.899V488.682C220.065 482.32 214.908 477.162 208.545 477.162H125.714ZM137.24 497.317C135.649 497.317 134.36 498.606 134.36 500.197V543.384C134.36 544.975 135.649 546.264 137.24 546.264H197.019C198.61 546.264 199.899 544.975 199.899 543.384V500.197C199.899 498.606 198.61 497.317 197.019 497.317H137.24Z" fill="#181B24"/>
<path fill-rule="evenodd" clip-rule="evenodd" d="M228.941 494.845C222.688 508.098 212.918 540.27 212.918 540.27L221.213 544.057C221.213 544.057 242.258 510.239 255.12 487.122C254.521 492.326 253.91 498.185 253.345 504.344C252.005 518.935 253.344 550.459 254.065 559.565C254.518 565.287 262.299 564.089 263.025 559.55C263.148 558.781 263.649 556.082 264.397 552.055C268.065 532.309 277.666 480.63 277.683 467.976C277.689 462.885 267.736 458.31 261.804 461.871C257.729 457.525 250.017 455.021 245.587 462.199C242.77 466.762 236.078 479.717 228.941 494.845Z" fill="#FDB797"/>
<path fill-rule="evenodd" clip-rule="evenodd" d="M213.511 528.359L241.98 460.957C248.8 449.993 267.921 463.188 265.595 469.548C260.315 483.986 233.461 530.727 231.888 535.028L213.511 528.359Z" fill="#DDE3E9"/>
<path fill-rule="evenodd" clip-rule="evenodd" d="M214.063 536.314C213.565 535.635 212.599 535.474 211.954 536.016C210.777 537.006 209.084 538.53 208.474 539.588C207.5 541.275 206.195 544.834 206.195 544.834C208.152 545.964 241.374 565.145 241.374 565.145C241.374 565.145 245.361 561.406 242.615 559.339C239.869 557.272 238.083 555.852 238.083 555.852L225.938 539.126C225.7 538.798 225.238 538.732 224.916 538.979L222.394 540.92C222.394 540.92 218.923 540.617 217.213 539.629C216.171 539.028 214.899 537.454 214.063 536.314Z" fill="#DDE3E9"/>
<path fill-rule="evenodd" clip-rule="evenodd" d="M254.238 555.106C253.467 554.767 252.55 555.11 252.263 555.903C251.738 557.348 251.035 559.515 251.035 560.737C251.035 562.684 251.684 566.419 251.684 566.419C253.944 566.419 292.305 566.419 292.305 566.419C292.305 566.419 293.888 561.187 290.477 560.77C287.066 560.353 284.809 560.017 284.809 560.017L265.928 551.604C265.558 551.439 265.124 551.613 264.97 551.987L263.756 554.93C263.756 554.93 260.598 556.403 258.623 556.403C257.421 556.403 255.532 555.675 254.238 555.106Z" fill="#DDE3E9"/>
<path fill-rule="evenodd" clip-rule="evenodd" d="M279.678 473.155C279.678 492.278 270.591 536.885 270.585 541.096L251.035 541.111C251.035 541.111 255.327 481.407 254.079 480.764C252.83 480.121 202.907 485.746 187.934 485.746C166.343 485.746 157.411 472.138 156.687 446.93H199.457C208.166 447.861 253.591 457.018 270.46 460.166C277.683 461.514 279.678 467.887 279.678 473.155Z" fill="#DDE3E9"/>
<path fill-rule="evenodd" clip-rule="evenodd" d="M263.458 368.047L236.159 376.237L243.128 387.842L264.354 375.357C274.262 374.768 278.943 373.791 278.398 372.427C277.938 371.278 276.844 371.082 275.837 370.901C275.051 370.761 274.319 370.629 273.979 370.064C273.204 368.773 275.922 365.411 278.638 362.332C281.355 359.252 279.181 359.109 277.868 359.356C273.354 361.188 268.55 364.085 263.458 368.047ZM256.72 441.201L233.746 424.34L228.668 436.887L251.418 446.316C257.852 453.87 261.45 457.019 262.211 455.763C262.853 454.704 262.351 453.713 261.889 452.8C261.529 452.088 261.193 451.425 261.44 450.813C262.005 449.417 266.327 449.564 270.423 449.879C274.518 450.194 273.325 448.372 272.337 447.473C268.157 444.972 262.951 442.881 256.72 441.201Z" fill="#FDB797"/>
<path fill-rule="evenodd" clip-rule="evenodd" d="M198.063 378.934C210.573 402.248 228.664 420.12 254.891 438.699L244.96 449.89C215.677 439.013 200.222 432.451 192.632 410.424C190.727 404.895 189.396 387.272 188.254 377.999L198.063 378.934Z" fill="#181B24"/>
<path fill-rule="evenodd" clip-rule="evenodd" d="M163.088 456.611H218.545C218.545 456.611 199.702 399.176 199.294 377.771C199.28 377.043 197.936 375.761 197.341 375.929C190.817 377.771 183.378 374.552 183.378 374.552C170.231 395.685 165.685 421.703 163.088 456.611Z" fill="#F2F2F2"/>
<path fill-rule="evenodd" clip-rule="evenodd" d="M197.289 406.793C205.95 443.926 205.551 474.323 186.429 474.323H156.859C152.163 442.779 164.506 399.043 175.949 376.983C176.386 376.14 177.316 374.552 179.507 374.552H188.099C188.103 374.564 188.107 374.575 188.11 374.586C190.696 374.607 193.543 374.702 196.627 374.804C212.501 375.331 234.635 376.065 259.541 368.074L262.478 382.739C239.998 397.189 217.235 408.383 197.289 406.793Z" fill="#181B24"/>
<path d="M488.8 184.936L519.259 164.243C521.43 162.768 524.281 162.768 526.452 164.243L601.277 215.076C604.785 217.458 606.884 221.423 606.884 225.663V537.917" stroke="#333948" stroke-width="6.4"/>
<rect x="582.884" y="537.117" width="47.2" height="5.6" rx="2.4" fill="#AFB9C5"/>
<path d="M460.399 172.468C470.709 162.158 487.424 162.158 497.734 172.468C508.044 182.777 508.044 199.493 497.734 209.803L481.895 225.642L444.56 188.307L460.399 172.468Z" fill="#C5CFD6"/>
<path fill-rule="evenodd" clip-rule="evenodd" d="M460.182 210.222C470.492 220.531 480.496 227.243 482.527 225.212C484.558 223.181 477.846 213.177 467.536 202.868C457.226 192.558 447.222 185.846 445.192 187.877C443.161 189.908 449.873 199.912 460.182 210.222Z" fill="#F2F2F2"/>
<defs>
<linearGradient id="paint0_linear" x1="-48.96" y1="553.64" x2="103.245" y2="635.135" gradientUnits="userSpaceOnUse">
<stop stop-color="#43E695"/>
<stop offset="1" stop-color="#3BB2B8"/>
</linearGradient>
</defs>
</svg>
