<svg width="42" height="47" viewBox="0 0 42 47" fill="none" xmlns="http://www.w3.org/2000/svg">
<g id="Group">
<path id="Path" fill-rule="evenodd" clip-rule="evenodd" d="M28.5964 9.12532C28.0202 9.12532 27.5805 9.06428 27.156 8.91168C26.4585 8.66753 25.7913 8.36233 25.1545 7.98084C24.8058 7.7672 24.457 7.55357 24.1083 7.32467C23.517 6.92792 22.865 6.68376 22.1978 6.48539C21.3942 6.24123 20.5906 6.27175 19.7718 6.50065C19.0137 6.72954 18.3163 7.06526 17.6491 7.46201C15.6325 8.63701 13.6159 9.82727 11.5993 11.0023C10.7199 11.5211 9.84044 12.0552 8.94585 12.5435C8.41517 12.8487 7.85416 13.0929 7.29315 13.3523C6.65632 13.6422 6.0195 13.6269 5.38268 13.3523C4.16968 12.8334 3.04766 12.162 2.01661 11.338C1.98629 11.3075 1.95596 11.2769 1.9408 11.2464C1.83466 11.1396 1.83466 10.8955 1.92564 10.7886C2.01661 10.6971 2.09242 10.6055 2.19856 10.5445C2.85055 10.1172 3.48737 9.65941 4.15452 9.27792C7.09603 7.55357 10.0376 5.84448 12.9791 4.13539C14.7227 3.12824 16.4513 2.1211 18.195 1.11396C18.6498 0.854541 19.135 0.610386 19.6202 0.396749C19.9083 0.259412 20.2419 0.183113 20.5451 0.0762947C20.8181 -0.0152637 21.1061 -0.0152637 21.3942 0.0457753C22.0917 0.198373 22.7285 0.457788 23.335 0.808762C24.3661 1.40389 25.3971 1.99902 26.413 2.60941C28.3235 3.72337 30.2339 4.83733 32.1444 5.96655C32.387 6.10389 32.6144 6.28701 32.8419 6.47013C32.9935 6.5922 32.9935 6.8974 32.857 7.01948C32.7661 7.11103 32.6903 7.20259 32.5841 7.27889C31.6744 7.90454 30.704 8.45389 29.6729 8.8659C29.4758 8.9422 29.2939 9.00324 29.0816 9.04902C28.8845 9.11006 28.6874 9.11006 28.5964 9.12532Z" fill="#45E58B"/>
<path id="Path_2" fill-rule="evenodd" clip-rule="evenodd" d="M0.106165 28.6273C0.106165 27.0097 0.0910027 25.4075 0.106165 23.7899C0.106165 23.3321 0.166815 22.8896 0.227465 22.4318C0.272952 22.1266 0.561039 21.9282 0.864288 21.9893C1.10689 22.0351 1.34949 22.0961 1.57692 22.1877C3.82097 23.0269 5.15526 24.8886 5.23107 27.2691C5.2614 28.0474 5.24624 28.8409 5.24624 29.6191C5.24624 30.1227 5.29172 30.611 5.39786 31.0993C5.67079 32.3201 6.29245 33.312 7.29317 34.0445C7.96032 34.5175 8.65779 34.9601 9.37043 35.3721C11.2051 36.4555 13.0701 37.5237 14.9047 38.5919C15.6477 39.0191 16.4058 39.4464 17.1336 39.889C17.6643 40.2094 18.1798 40.5451 18.6802 40.8961C19.4231 41.4302 19.8628 42.1779 19.8932 43.0935C19.9387 44.2075 19.8932 45.3214 19.8628 46.4354C19.8628 46.5422 19.7719 46.6643 19.7264 46.7711C19.6657 46.8932 19.4231 46.9847 19.3018 46.9542C19.1805 46.9237 19.0592 46.8932 18.9531 46.8321C18.3011 46.4964 17.634 46.176 16.9971 45.7945C13.6159 43.8412 10.2498 41.8727 6.88378 39.9042C5.45851 39.0802 4.03324 38.2562 2.62313 37.4321C2.22891 37.2032 1.84985 36.9743 1.48595 36.6997C0.606526 36.0435 0.151653 35.1584 0.121328 34.0445C0.121328 33.8003 0.106165 33.5562 0.106165 33.2967C0.106165 31.7555 0.106165 30.199 0.106165 28.6273Z" fill="#45E58B"/>
<path id="Path_3" fill-rule="evenodd" clip-rule="evenodd" d="M41.9091 24.4614C41.8787 27.5438 41.8636 30.6721 41.8332 33.8156C41.8332 34.0598 41.8181 34.3039 41.7878 34.5633C41.7119 35.3874 41.3329 36.0588 40.6961 36.5623C40.408 36.7912 40.0896 36.9896 39.7711 37.188C36.8296 38.9123 33.8881 40.652 30.9618 42.3763C30.7495 42.4984 30.5221 42.6052 30.2946 42.6968C30.0217 42.8188 29.7033 42.5899 29.673 42.2848C29.6578 42.2085 29.6578 42.1169 29.6578 42.0406C29.6578 40.8809 29.673 39.7211 29.6426 38.5766C29.6275 37.9052 29.9004 37.3864 30.4008 36.9591C30.9921 36.4403 31.6289 35.9977 32.2961 35.5857C32.8267 35.2653 33.3423 34.9448 33.873 34.6244C34.1156 34.4718 34.3582 34.3192 34.6008 34.1513C35.9654 33.251 36.6628 31.9539 36.7235 30.3059C36.7538 29.6802 36.7538 29.0698 36.7538 28.4442C36.7538 25.3464 36.7538 22.2487 36.769 19.151C36.769 18.739 36.7841 18.327 36.7841 17.9149C36.7841 17.5029 36.8751 17.0909 36.9964 16.6942C37.1784 16.1296 37.4968 15.6412 37.982 15.3055C38.9675 14.6188 39.9986 14.039 41.0903 13.5659C41.1661 13.5354 41.2571 13.5049 41.3329 13.5201C41.439 13.5507 41.6058 13.5812 41.6513 13.6727C41.7574 13.8864 41.8484 14.1305 41.8939 14.3594C41.9394 14.6494 41.9242 14.9393 41.9242 15.2292C41.9091 18.2812 41.9091 21.3484 41.9091 24.4614Z" fill="#45E58B"/>
</g>
</svg>
