<svg width="154" height="47" viewBox="0 0 154 47" fill="none" xmlns="http://www.w3.org/2000/svg">
<path d="M73.672 17.984C72.232 16.328 70.024 15.272 67.456 15.272C62.728 15.272 58.984 19.088 58.984 23.768C58.984 28.424 62.728 32.24 67.456 32.24C72.208 32.24 75.52 29.504 75.52 23.312H67.024V26.168H71.464C71.464 27.896 69.232 29.024 67.456 29.024C64.672 29.024 62.512 26.624 62.512 23.768C62.512 20.888 64.672 18.536 67.456 18.536C68.896 18.536 70.144 19.184 71.08 20.216L73.672 17.984ZM85.5486 28.304C84.9966 29.048 84.0366 29.36 83.1006 29.36C81.9006 29.36 80.5326 28.784 80.3406 27.488H88.5486C88.5726 27.2 88.5966 26.744 88.5966 26.456C88.5966 22.928 86.0526 20.552 82.8606 20.552C79.6686 20.552 77.0046 22.808 77.0046 26.36C77.0046 29.888 79.6686 32.24 82.8606 32.24C84.7806 32.24 86.8206 31.64 87.9726 29.96L85.5486 28.304ZM80.3886 25.4C80.6526 23.96 81.9726 23.48 82.8846 23.48C83.8446 23.48 85.0446 24.032 85.2366 25.4H80.3886ZM94.2079 26.072C94.2079 24.368 95.0959 23.792 96.2719 23.792C97.3999 23.792 98.2159 24.512 98.2159 26.024V32H101.552V25.304C101.552 22.112 99.9679 20.552 97.4479 20.552C96.1039 20.552 94.8079 21.296 94.2079 22.424V20.792H90.8719V32H94.2079V26.072ZM112.385 28.304C111.833 29.048 110.873 29.36 109.937 29.36C108.737 29.36 107.369 28.784 107.177 27.488H115.385C115.409 27.2 115.433 26.744 115.433 26.456C115.433 22.928 112.889 20.552 109.697 20.552C106.505 20.552 103.841 22.808 103.841 26.36C103.841 29.888 106.505 32.24 109.697 32.24C111.617 32.24 113.657 31.64 114.809 29.96L112.385 28.304ZM107.225 25.4C107.489 23.96 108.809 23.48 109.721 23.48C110.681 23.48 111.881 24.032 112.073 25.4H107.225ZM117.228 27.152C117.228 30.128 119.652 32.264 123.228 32.264C126.18 32.264 129.108 30.68 129.18 27.416C129.252 25.856 128.652 23.576 124.644 22.424L122.676 21.8C121.044 21.344 120.9 20.552 120.9 20.12C120.9 19.136 121.812 18.464 123.036 18.464C124.452 18.464 125.172 19.208 125.172 20.336H128.676C128.676 17.168 126.276 15.272 123.084 15.272C119.916 15.272 117.396 17.264 117.396 20.216C117.396 21.728 118.02 23.816 121.668 24.968L123.66 25.52C125.316 26 125.676 26.648 125.652 27.392C125.628 28.472 124.668 29.144 123.228 29.144C121.62 29.144 120.828 28.208 120.756 27.152H117.228ZM142.167 20.792H138.615L136.119 27.152L133.647 20.792H130.095L134.415 30.848L131.727 37.496H135.255L142.167 20.792ZM148.045 27.776C148.885 27.992 149.149 28.256 149.149 28.736C149.149 29.312 148.525 29.648 147.781 29.672C146.845 29.672 146.149 29.024 146.125 28.376H143.005C143.005 30.872 145.429 32.24 147.685 32.24C150.037 32.24 152.533 31.112 152.533 28.736C152.533 27.992 152.197 26.24 149.485 25.472L147.589 24.968C146.917 24.8 146.629 24.488 146.605 24.128C146.581 23.624 147.037 23.288 147.781 23.288C148.333 23.288 149.029 23.432 149.053 24.272H152.197C152.197 21.512 149.797 20.552 147.589 20.552C145.237 20.552 143.221 22.088 143.221 23.744C143.221 24.776 143.197 26.504 146.581 27.392L148.045 27.776Z" fill="white"/>
<path fill-rule="evenodd" clip-rule="evenodd" d="M28.5963 9.12532C28.0202 9.12532 27.5805 9.06428 27.1559 8.91168C26.4584 8.66753 25.7913 8.36233 25.1545 7.98084C24.8057 7.7672 24.457 7.55357 24.1082 7.32467C23.5169 6.92792 22.8649 6.68376 22.1978 6.48539C21.3942 6.24123 20.5906 6.27175 19.7718 6.50065C19.0137 6.72954 18.3162 7.06526 17.649 7.46201C15.6324 8.63701 13.6158 9.82727 11.5992 11.0023C10.7198 11.5211 9.84038 12.0552 8.94579 12.5435C8.41511 12.8487 7.8541 13.0929 7.29309 13.3523C6.65626 13.6422 6.01944 13.6269 5.38262 13.3523C4.16962 12.8334 3.0476 12.162 2.01655 11.338C1.98623 11.3075 1.9559 11.2769 1.94074 11.2464C1.8346 11.1396 1.8346 10.8955 1.92558 10.7886C2.01655 10.6971 2.09236 10.6055 2.1985 10.5445C2.85049 10.1172 3.48731 9.65941 4.15446 9.27792C7.09597 7.55357 10.0375 5.84448 12.979 4.13539C14.7227 3.12824 16.4512 2.1211 18.1949 1.11396C18.6498 0.854541 19.135 0.610386 19.6202 0.396749C19.9082 0.259412 20.2418 0.183113 20.5451 0.0762947C20.818 -0.0152637 21.1061 -0.0152637 21.3942 0.0457753C22.0916 0.198373 22.7285 0.457788 23.335 0.808762C24.366 1.40389 25.3971 1.99902 26.4129 2.60941C28.3234 3.72337 30.2339 4.83733 32.1443 5.96655C32.3869 6.10389 32.6144 6.28701 32.8418 6.47013C32.9934 6.5922 32.9934 6.8974 32.857 7.01948C32.766 7.11103 32.6902 7.20259 32.5841 7.27889C31.6743 7.90454 30.7039 8.45389 29.6729 8.8659C29.4758 8.9422 29.2938 9.00324 29.0815 9.04902C28.8844 9.11006 28.6873 9.11006 28.5963 9.12532Z" fill="#2BD585"/>
<path fill-rule="evenodd" clip-rule="evenodd" d="M0.106104 28.6273C0.106104 27.0097 0.0909416 25.4075 0.106104 23.7899C0.106104 23.3321 0.166754 22.8896 0.227404 22.4318C0.272891 22.1266 0.560978 21.9282 0.864227 21.9893C1.10683 22.0351 1.34943 22.0961 1.57686 22.1877C3.82091 23.0269 5.1552 24.8886 5.23101 27.2691C5.26134 28.0474 5.24618 28.8409 5.24618 29.6191C5.24618 30.1227 5.29166 30.611 5.3978 31.0993C5.67072 32.3201 6.29239 33.312 7.29311 34.0445C7.96026 34.5175 8.65773 34.9601 9.37036 35.3721C11.205 36.4555 13.07 37.5237 14.9047 38.5919C15.6476 39.0191 16.4057 39.4464 17.1335 39.889C17.6642 40.2094 18.1798 40.5451 18.6801 40.8961C19.4231 41.4302 19.8628 42.1779 19.8931 43.0935C19.9386 44.2075 19.8931 45.3214 19.8628 46.4354C19.8628 46.5422 19.7718 46.6643 19.7263 46.7711C19.6657 46.8932 19.4231 46.9847 19.3018 46.9542C19.1805 46.9237 19.0592 46.8932 18.953 46.8321C18.3011 46.4964 17.6339 46.176 16.9971 45.7945C13.6159 43.8412 10.2498 41.8727 6.88372 39.9042C5.45845 39.0802 4.03318 38.2562 2.62307 37.4321C2.22885 37.2032 1.84979 36.9743 1.48589 36.6997C0.606465 36.0435 0.151591 35.1584 0.121267 34.0445C0.121267 33.8003 0.106104 33.5562 0.106104 33.2967C0.106104 31.7555 0.106104 30.199 0.106104 28.6273Z" fill="#2BD585"/>
<path fill-rule="evenodd" clip-rule="evenodd" d="M41.9091 24.4613C41.8788 27.5438 41.8636 30.6721 41.8333 33.8156C41.8333 34.0597 41.8181 34.3039 41.7878 34.5633C41.712 35.3873 41.3329 36.0587 40.6961 36.5623C40.408 36.7912 40.0896 36.9896 39.7712 37.188C36.8297 38.9123 33.8882 40.6519 30.9618 42.3763C30.7495 42.4984 30.5221 42.6052 30.2947 42.6967C30.0218 42.8188 29.7033 42.5899 29.673 42.2847C29.6579 42.2084 29.6579 42.1169 29.6579 42.0406C29.6579 40.8808 29.673 39.7211 29.6427 38.5766C29.6275 37.9052 29.9005 37.3863 30.4008 36.9591C30.9921 36.4402 31.629 35.9977 32.2961 35.5857C32.8268 35.2652 33.3423 34.9448 33.873 34.6243C34.1156 34.4717 34.3582 34.3191 34.6008 34.1513C35.9654 33.251 36.6629 31.9539 36.7236 30.3058C36.7539 29.6802 36.7539 29.0698 36.7539 28.4441C36.7539 25.3464 36.7539 22.2487 36.769 19.151C36.769 18.7389 36.7842 18.3269 36.7842 17.9149C36.7842 17.5029 36.8752 17.0909 36.9965 16.6941C37.1784 16.1295 37.4968 15.6412 37.982 15.3055C38.9676 14.6188 39.9986 14.0389 41.0903 13.5659C41.1662 13.5354 41.2571 13.5049 41.3329 13.5201C41.4391 13.5506 41.6059 13.5812 41.6514 13.6727C41.7575 13.8863 41.8485 14.1305 41.894 14.3594C41.9394 14.6493 41.9243 14.9393 41.9243 15.2292C41.9091 18.2811 41.9091 21.3484 41.9091 24.4613Z" fill="#2BD585"/>
</svg>
